Fungal-Grow 100 Thickness 0.ufo
<glyph name="three" format="1">
  <advance width="1303"/>
  <unicode hex="0033"/>
  <outline>
    <contour>
      <point x="831" y="805" type="qcurve"/>
      <point x="976" y="774"/>
      <point x="1139" y="578"/>
      <point x="1139" y="434" type="qcurve" smooth="yes"/>
      <point x="1139" y="213"/>
      <point x="835" y="-29"/>
      <point x="555" y="-29" type="qcurve" smooth="yes"/>
      <point x="461" y="-29"/>
      <point x="262" y="8"/>
      <point x="156" y="45" type="qcurve"/>
      <point x="156" y="240" type="line"/>
      <point x="240" y="191"/>
      <point x="440" y="141"/>
      <point x="549" y="141" type="qcurve" smooth="yes"/>
      <point x="739" y="141"/>
      <point x="938" y="291"/>
      <point x="938" y="434" type="qcurve" smooth="yes"/>
      <point x="938" y="566"/>
      <point x="753" y="715"/>
      <point x="588" y="715" type="qcurve" smooth="yes"/>
      <point x="414" y="715" type="line"/>
      <point x="414" y="881" type="line"/>
      <point x="596" y="881" type="line" smooth="yes"/>
      <point x="745" y="881"/>
      <point x="903" y="1000"/>
      <point x="903" y="1112" type="qcurve" smooth="yes"/>
      <point x="903" y="1227"/>
      <point x="740" y="1350"/>
      <point x="588" y="1350" type="qcurve" smooth="yes"/>
      <point x="505" y="1350"/>
      <point x="315" y="1314"/>
      <point x="201" y="1276" type="qcurve"/>
      <point x="201" y="1456" type="line"/>
      <point x="316" y="1488"/>
      <point x="517" y="1520"/>
      <point x="606" y="1520" type="qcurve" smooth="yes"/>
      <point x="836" y="1520"/>
      <point x="1104" y="1311"/>
      <point x="1104" y="1133" type="qcurve" smooth="yes"/>
      <point x="1104" y="1009"/>
      <point x="962" y="838"/>
    </contour>
    <component base="blob1" xScale="0" xyScale="1.2886" yScale="0" yxScale="-1.2886" xOffset="185" yOffset="799"/>
    <component base="blob2" xScale="0" xyScale="1.2342" yScale="0" yxScale="-1.2342" xOffset="-443" yOffset="648"/>
    <component base="blob3" xScale="0" xyScale="1" yScale="0" yxScale="-1" xOffset="-933" yOffset="386"/>
    <component base="blob4" xScale="0" xyScale="0.8783" yScale="0" yxScale="-0.8783" xOffset="-1373" yOffset="512"/>
    <component base="blob5" xScale="0" xyScale="1" yScale="0" yxScale="-1" xOffset="-1839" yOffset="469"/>
    <component base="blob6" xScale="0" xyScale="1.1539" yScale="0" yxScale="-1.1539" xOffset="-2311" yOffset="190"/>
    <component base="blob7" xScale="0" xyScale="0.9753" yScale="0" yxScale="-0.9753" xOffset="-2714" yOffset="-192"/>
    <component base="blob8" xScale="0" xyScale="0.7047" yScale="0" yxScale="-0.7047" xOffset="-2900" yOffset="-470"/>
    <component base="blob9" xScale="0" xyScale="0.4869" yScale="0" yxScale="-0.4869" xOffset="-3028" yOffset="-690"/>
    <component base="blob2" xScale="0" xyScale="1.2342" yScale="0" yxScale="-1.2342" xOffset="649" yOffset="532"/>
    <component base="blob3" xScale="0" xyScale="1" yScale="0" yxScale="-1" xOffset="804" yOffset="118"/>
    <component base="blob4" xScale="0" xyScale="0.8783" yScale="0" yxScale="-0.8783" xOffset="1228" yOffset="22"/>
    <contour>
      <point x="651" y="1520" type="move" name="above"/>
    </contour>
    <contour>
      <point x="651" y="0" type="move" name="below"/>
    </contour>
  </outline>
</glyph>
<glyph name="eight" format="1">
  <advance width="1303"/>
  <unicode hex="0038"/>
  <outline>
    <contour>
      <point x="651" y="709" type="qcurve" smooth="yes"/>
      <point x="507" y="709"/>
      <point x="342" y="555"/>
      <point x="342" y="420" type="qcurve" smooth="yes"/>
      <point x="342" y="285"/>
      <point x="507" y="131"/>
      <point x="651" y="131" type="qcurve" smooth="yes"/>
      <point x="795" y="131"/>
      <point x="961" y="286"/>
      <point x="961" y="420" type="qcurve" smooth="yes"/>
      <point x="961" y="555"/>
      <point x="796" y="709"/>
    </contour>
    <contour>
      <point x="449" y="795" type="qcurve"/>
      <point x="319" y="827"/>
      <point x="174" y="1005"/>
      <point x="174" y="1133" type="qcurve" smooth="yes"/>
      <point x="174" y="1312"/>
      <point x="429" y="1520"/>
      <point x="651" y="1520" type="qcurve" smooth="yes"/>
      <point x="874" y="1520"/>
      <point x="1128" y="1312"/>
      <point x="1128" y="1133" type="qcurve" smooth="yes"/>
      <point x="1128" y="1005"/>
      <point x="983" y="827"/>
      <point x="854" y="795" type="qcurve"/>
      <point x="1000" y="761"/>
      <point x="1163" y="563"/>
      <point x="1163" y="420" type="qcurve" smooth="yes"/>
      <point x="1163" y="203"/>
      <point x="898" y="-29"/>
      <point x="651" y="-29" type="qcurve" smooth="yes"/>
      <point x="404" y="-29"/>
      <point x="139" y="203"/>
      <point x="139" y="420" type="qcurve" smooth="yes"/>
      <point x="139" y="563"/>
      <point x="303" y="761"/>
    </contour>
    <contour>
      <point x="375" y="1114" type="qcurve" smooth="yes"/>
      <point x="375" y="998"/>
      <point x="520" y="868"/>
      <point x="651" y="868" type="qcurve" smooth="yes"/>
      <point x="781" y="868"/>
      <point x="928" y="998"/>
      <point x="928" y="1114" type="qcurve" smooth="yes"/>
      <point x="928" y="1230"/>
      <point x="781" y="1360"/>
      <point x="651" y="1360" type="qcurve" smooth="yes"/>
      <point x="520" y="1360"/>
      <point x="375" y="1230"/>
    </contour>
    <component base="blob1" xScale="0" xyScale="-1.2886" yScale="0" yxScale="1.2886" xOffset="600" yOffset="1677"/>
    <component base="blob2" xScale="0" xyScale="-1" yScale="0" yxScale="1" xOffset="890" yOffset="2175"/>
    <component base="blob3" xScale="0" xyScale="-1" yScale="0" yxScale="1" xOffset="1037" yOffset="2673"/>
    <component base="blob4" xScale="0" xyScale="-0.8783" yScale="0" yxScale="0.8783" xOffset="875" yOffset="3024"/>
    <component base="blob5" xScale="0" xyScale="-1" yScale="0" yxScale="1" xOffset="892" yOffset="3499"/>
    <component base="blob6" xScale="0" xyScale="-1.1539" yScale="0" yxScale="1.1539" xOffset="625" yOffset="3943"/>
    <component base="blob7" xScale="0" xyScale="-0.9753" yScale="0" yxScale="0.9753" xOffset="279" yOffset="4230"/>
    <component base="blob8" xScale="0" xyScale="-0.7047" yScale="0" yxScale="0.7047" xOffset="-7" yOffset="4473"/>
    <component base="blob9" xScale="0" xyScale="-0.4869" yScale="0" yxScale="0.4869" xOffset="-263" yOffset="4381"/>
    <component base="blob2" xScale="0" xyScale="-1" yScale="0" yxScale="1" xOffset="535" yOffset="1139"/>
    <component base="blob3" xScale="0" xyScale="-1" yScale="0" yxScale="1" xOffset="818" yOffset="739"/>
    <component base="blob4" xScale="0" xyScale="-0.8783" yScale="0" yxScale="0.8783" xOffset="781" yOffset="326"/>
    <component base="blob5" xScale="0" xyScale="-1" yScale="0" yxScale="1" xOffset="369" yOffset="235"/>
    <component base="blob6" xScale="0" xyScale="-1.1539" yScale="0" yxScale="1.1539" xOffset="135" yOffset="-199"/>
    <component base="blob7" xScale="0" xyScale="-0.9753" yScale="0" yxScale="0.9753" xOffset="279" yOffset="-697"/>
    <component base="blob8" xScale="0" xyScale="-0.7047" yScale="0" yxScale="0.7047" xOffset="613" yOffset="-825"/>
    <component base="blob9" xScale="0" xyScale="-0.4869" yScale="0" yxScale="0.4869" xOffset="797" yOffset="-1030"/>
    <contour>
      <point x="651" y="1520" type="move" name="above"/>
    </contour>
    <contour>
      <point x="651" y="0" type="move" name="below"/>
    </contour>
  </outline>
</glyph>
<glyph name="K" format="1">
  <advance width="1343"/>
  <unicode hex="004B"/>
  <outline>
    <contour>
      <point x="201" y="1493" type="line"/>
      <point x="403" y="1493" type="line"/>
      <point x="403" y="862" type="line"/>
      <point x="1073" y="1493" type="line"/>
      <point x="1333" y="1493" type="line"/>
      <point x="592" y="797" type="line"/>
      <point x="1386" y="0" type="line"/>
      <point x="1120" y="0" type="line"/>
      <point x="403" y="719" type="line"/>
      <point x="403" y="0" type="line"/>
      <point x="201" y="0" type="line"/>
      <point x="201" y="1493" type="line"/>
    </contour>
    <component base="blob1" xScale="0" xyScale="-1.2886" yScale="0" yxScale="1.2886" xOffset="1087" yOffset="1570"/>
    <component base="blob2" xScale="0" xyScale="-1" yScale="0" yxScale="1" xOffset="1504" yOffset="1904"/>
    <component base="blob3" xScale="0" xyScale="-1" yScale="0" yxScale="1" xOffset="1925" yOffset="1963"/>
    <component base="blob4" xScale="0" xyScale="-0.8783" yScale="0" yxScale="0.8783" xOffset="2337" yOffset="1816"/>
    <component base="blob5" xScale="0" xyScale="-1" yScale="0" yxScale="1" xOffset="2701" yOffset="1559"/>
    <component base="blob6" xScale="0" xyScale="-1.1539" yScale="0" yxScale="1.1539" xOffset="3198" yOffset="1360"/>
    <component base="blob7" xScale="0" xyScale="-0.9753" yScale="0" yxScale="0.9753" xOffset="3692" yOffset="1269"/>
    <component base="blob8" xScale="0" xyScale="-0.7047" yScale="0" yxScale="0.7047" xOffset="4076" yOffset="1238"/>
    <component base="blob9" xScale="0" xyScale="-0.4869" yScale="0" yxScale="0.4869" xOffset="4338" yOffset="1198"/>
    <component base="blob1" xScale="0" xyScale="1.2886" yScale="0" yxScale="1.2886" xOffset="1079" yOffset="130"/>
    <component base="blob2" xScale="0" xyScale="1" yScale="0" yxScale="1" xOffset="1494" yOffset="-72"/>
    <component base="blob3" xScale="0" xyScale="1" yScale="0" yxScale="1" xOffset="1827" yOffset="-393"/>
    <component base="blob4" xScale="0" xyScale="0.8783" yScale="0" yxScale="0.8783" xOffset="2025" yOffset="-753"/>
    <component base="blob5" xScale="0" xyScale="1" yScale="0" yxScale="1" xOffset="2139" yOffset="-1180"/>
    <component base="blob6" xScale="0" xyScale="1.1539" yScale="0" yxScale="1.1539" xOffset="2334" yOffset="-1626"/>
    <component base="blob7" xScale="0" xyScale="0.9753" yScale="0" yxScale="0.9753" xOffset="2730" yOffset="-1895"/>
    <component base="blob8" xScale="0" xyScale="0.7047" yScale="0" yxScale="0.7047" xOffset="3134" yOffset="-2024"/>
    <component base="blob9" xScale="0" xyScale="0.4869" yScale="0" yxScale="0.4869" xOffset="3413" yOffset="-1986"/>
    <component base="blob2" xScale="0" xyScale="-1" yScale="0" yxScale="1" xOffset="718" yOffset="1199"/>
    <component base="blob3" xScale="0" xyScale="-1" yScale="0" yxScale="1" xOffset="475" yOffset="849"/>
    <component base="blob4" xScale="0" xyScale="-0.8783" yScale="0" yxScale="0.8783" xOffset="298" yOffset="438"/>
    <component base="blob5" xScale="0" xyScale="-0.7906" yScale="0" yxScale="0.7906" xOffset="254" yOffset="57"/>
    <contour>
      <point x="670" y="1520" type="move" name="above"/>
    </contour>
    <contour>
      <point x="670" y="0" type="move" name="below"/>
    </contour>
    <contour>
      <point x="0" y="1520" type="move" name="half"/>
    </contour>
  </outline>
</glyph>
<glyph name="Dcaron" format="1">
  <advance width="1577"/>
  <unicode hex="010E"/>
  <outline>
    <component base="Caron" xOffset="1260" yOffset="373"/>
    <component base="D"/>
    <contour>
      <point x="748" y="1901" type="move" name="above-legacy"/>
    </contour>
    <contour>
      <point x="748" y="0" type="move" name="below"/>
    </contour>
    <contour>
      <point x="0" y="1520" type="move" name="half"/>
    </contour>
  </outline>
</glyph>
<glyph name="dcaron" format="1">
  <advance width="1300"/>
  <unicode hex="010F"/>
  <outline>
    <component base="d"/>
    <component base="dlLtcaron" xOffset="1300"/>
    <contour>
      <point x="1022" y="1520" type="move" name="above"/>
    </contour>
    <contour>
      <point x="614" y="0" type="move" name="below"/>
    </contour>
    <contour>
      <point x="0" y="1520" type="move" name="half"/>
    </contour>
  </outline>
</glyph>
<glyph name="Tbar" format="1">
  <advance width="1251"/>
  <unicode hex="0166"/>
  <outline>
    <contour>
      <point x="-6" y="1493" type="line"/>
      <point x="1257" y="1493" type="line"/>
      <point x="1257" y="1323" type="line"/>
      <point x="727" y="1323" type="line"/>
      <point x="727" y="747" type="line"/>
      <point x="992" y="747" type="line"/>
      <point x="992" y="577" type="line"/>
      <point x="727" y="577" type="line"/>
      <point x="727" y="0" type="line"/>
      <point x="524" y="0" type="line"/>
      <point x="524" y="577" type="line"/>
      <point x="259" y="577" type="line"/>
      <point x="259" y="747" type="line"/>
      <point x="524" y="747" type="line"/>
      <point x="524" y="1323" type="line"/>
      <point x="-6" y="1323" type="line"/>
    </contour>
    <contour>
      <point x="627" y="1520" type="move" name="above"/>
    </contour>
    <contour>
      <point x="627" y="0" type="move" name="below"/>
    </contour>
    <contour>
      <point x="0" y="1520" type="move" name="half"/>
    </contour>
  </outline>
</glyph>
<glyph name="tbar" format="1">
  <advance width="803"/>
  <unicode hex="0167"/>
  <outline>
    <contour>
      <point x="375" y="1438" type="line"/>
      <point x="375" y="1120" type="line"/>
      <point x="754" y="1120" type="line"/>
      <point x="754" y="977" type="line"/>
      <point x="375" y="977" type="line"/>
      <point x="375" y="744" type="line"/>
      <point x="754" y="744" type="line"/>
      <point x="754" y="602" type="line"/>
      <point x="375" y="602" type="line"/>
      <point x="375" y="369" type="line" smooth="yes"/>
      <point x="375" y="232"/>
      <point x="412" y="193" type="qcurve" smooth="yes"/>
      <point x="450" y="154"/>
      <point x="565" y="154" type="qcurve" smooth="yes"/>
      <point x="754" y="154" type="line"/>
      <point x="754" y="0" type="line"/>
      <point x="565" y="0" type="line" smooth="yes"/>
      <point x="352" y="0"/>
      <point x="271" y="80" type="qcurve" smooth="yes"/>
      <point x="190" y="159"/>
      <point x="190" y="369" type="qcurve" smooth="yes"/>
      <point x="190" y="602" type="line"/>
      <point x="55" y="602" type="line"/>
      <point x="55" y="744" type="line"/>
      <point x="190" y="744" type="line"/>
      <point x="190" y="977" type="line"/>
      <point x="55" y="977" type="line"/>
      <point x="55" y="1120" type="line"/>
      <point x="190" y="1120" type="line"/>
      <point x="190" y="1438" type="line"/>
    </contour>
    <contour>
      <point x="282" y="1520" type="move" name="above"/>
    </contour>
    <contour>
      <point x="500" y="0" type="move" name="below"/>
    </contour>
    <contour>
      <point x="0" y="1520" type="move" name="half"/>
    </contour>
  </outline>
</glyph>
<glyph name="uni01D0" format="1">
  <advance width="569"/>
  <unicode hex="01D0"/>
  <outline>
    <component base="dotlessi"/>
    <component base="caron" xOffset="-225"/>
    <contour>
      <point x="287" y="0" type="move" name="below"/>
    </contour>
    <contour>
      <point x="287" y="0" type="move" name="cedilla"/>
    </contour>
  </outline>
</glyph>
<glyph name="uni020A" format="1">
  <advance width="604"/>
  <unicode hex="020A"/>
  <outline>
    <component base="I"/>
    <component base="uni0311.case" xOffset="830" yOffset="318"/>
    <contour>
      <point x="303" y="0" type="move" name="below"/>
    </contour>
    <contour>
      <point x="303" y="0" type="move" name="cedilla"/>
    </contour>
  </outline>
</glyph>
<glyph name="uni020B" format="1">
  <advance width="569"/>
  <unicode hex="020B"/>
  <outline>
    <component base="uni0311" xOffset="804"/>
    <component base="dotlessi" xOffset="-0.500"/>
    <contour>
      <point x="287" y="0" type="move" name="below"/>
    </contour>
    <contour>
      <point x="287" y="0" type="move" name="cedilla"/>
    </contour>
  </outline>
</glyph>
<glyph name="uni030B" format="1">
  <advance width="0"/>
  <unicode hex="030B"/>
  <outline>
    <component base="hungarumlaut" xOffset="-1020"/>
    <contour>
      <point x="-512" y="1147" type="move" name="_above"/>
    </contour>
    <contour>
      <point x="-512" y="1147" type="move" name="_above-mark"/>
    </contour>
    <contour>
      <point x="-512" y="1640" type="move" name="above-mark"/>
    </contour>
  </outline>
</glyph>
<glyph name="uni030D" format="1">
  <advance width="0"/>
  <unicode hex="030D"/>
  <outline>
    <contour>
      <point x="-444" y="1704" type="line"/>
      <point x="-444" y="1260" type="line"/>
      <point x="-580" y="1260" type="line"/>
      <point x="-580" y="1704" type="line"/>
    </contour>
    <contour>
      <point x="-512" y="1147" type="move" name="_above"/>
    </contour>
    <contour>
      <point x="-512" y="1147" type="move" name="_above-mark"/>
    </contour>
    <contour>
      <point x="-512" y="1704" type="move" name="above-mark"/>
    </contour>
  </outline>
</glyph>
<glyph name="uni0346" format="1">
  <advance width="0"/>
  <unicode hex="0346"/>
  <outline>
    <contour>
      <point x="-213" y="1309" type="line"/>
      <point x="-363" y="1309" type="line"/>
      <point x="-363" y="1459" type="line"/>
      <point x="-661" y="1459" type="line"/>
      <point x="-661" y="1309" type="line"/>
      <point x="-811" y="1309" type="line"/>
      <point x="-811" y="1609" type="line"/>
      <point x="-213" y="1609" type="line"/>
    </contour>
    <contour>
      <point x="-512" y="1147" type="move" name="_above"/>
    </contour>
    <contour>
      <point x="-512" y="1282" type="move" name="_above-mark"/>
    </contour>
    <contour>
      <point x="-512" y="1604" type="move" name="above-mark"/>
    </contour>
  </outline>
</glyph>
<glyph name="uni034D" format="1">
  <advance width="0"/>
  <unicode hex="034D"/>
  <outline>
    <contour>
      <point x="-400" y="-472" type="line"/>
      <point x="-268" y="-317" type="line"/>
      <point x="-755" y="-317" type="line"/>
      <point x="-623" y="-472" type="line"/>
      <point x="-750" y="-472" type="line"/>
      <point x="-925" y="-267" type="line"/>
      <point x="-750" y="-62" type="line"/>
      <point x="-623" y="-62" type="line"/>
      <point x="-755" y="-217" type="line"/>
      <point x="-268" y="-217" type="line"/>
      <point x="-400" y="-62" type="line"/>
      <point x="-274" y="-62" type="line"/>
      <point x="-99" y="-267" type="line"/>
      <point x="-274" y="-472" type="line"/>
    </contour>
    <contour>
      <point x="-512" y="-1" type="move" name="_Ligature below"/>
    </contour>
    <contour>
      <point x="-512" y="-1" type="move" name="_below"/>
    </contour>
    <contour>
      <point x="-512" y="0" type="move" name="_below-mark"/>
    </contour>
    <contour>
      <point x="-512" y="-498" type="move" name="below-mark"/>
    </contour>
  </outline>
</glyph>
<glyph name="uni03BC" format="1">
  <advance width="1303"/>
  <unicode hex="03BC"/>
  <outline>
    <component base="mu"/>
    <contour>
      <point x="647" y="1147" type="move" name="above"/>
    </contour>
  </outline>
</glyph>
<glyph name="uni0410" format="1">
  <advance width="1401"/>
  <unicode hex="0410"/>
  <outline>
    <component base="A"/>
    <contour>
      <point x="700" y="1520" type="move" name="above"/>
    </contour>
  </outline>
</glyph>
<glyph name="uni0426" format="1">
  <advance width="1590"/>
  <unicode hex="0426"/>
  <outline>
    <contour>
      <point x="1339" y="0" type="line"/>
      <point x="201" y="0" type="line"/>
      <point x="201" y="1493" type="line"/>
      <point x="403" y="1493" type="line"/>
      <point x="403" y="170" type="line"/>
      <point x="1137" y="170" type="line"/>
      <point x="1137" y="1493" type="line"/>
      <point x="1339" y="1493" type="line"/>
      <point x="1339" y="170" type="line"/>
      <point x="1509" y="170" type="line"/>
      <point x="1509" y="-321" type="line"/>
      <point x="1339" y="-321" type="line"/>
    </contour>
    <contour>
      <point x="770" y="1520" type="move" name="above"/>
    </contour>
  </outline>
</glyph>
<glyph name="uni05E7" format="1">
  <advance width="1453"/>
  <unicode hex="05E7"/>
  <outline>
    <contour>
      <point x="396" y="-426" type="line"/>
      <point x="210" y="-426" type="line"/>
      <point x="210" y="608" type="line"/>
      <point x="396" y="684" type="line"/>
    </contour>
    <contour>
      <point x="677" y="0" type="line"/>
      <point x="1081" y="977" type="line"/>
      <point x="186" y="977" type="line"/>
      <point x="186" y="1119" type="line"/>
      <point x="1297" y="1119" type="line"/>
      <point x="1297" y="1009" type="line"/>
      <point x="872" y="0" type="line"/>
    </contour>
    <contour>
      <point x="708" y="0" type="move" name="rtl-below"/>
    </contour>
    <contour>
      <point x="614" y="560" type="move" name="rtl-inside"/>
    </contour>
  </outline>
</glyph>
<glyph name="uni0622" format="1">
  <advance width="569"/>
  <unicode hex="0622"/>
  <outline>
    <component base="uni0653" xOffset="-227" yOffset="450"/>
    <component base="uni0627"/>
    <contour>
      <point x="285" y="1950" type="move" name="rtl-above"/>
    </contour>
    <contour>
      <point x="285" y="-100" type="move" name="rtl-below"/>
    </contour>
  </outline>
</glyph>
<glyph name="uni0636" format="1">
  <advance width="2476"/>
  <unicode hex="0636"/>
  <outline>
    <component base="uni0635"/>
    <component base="arabic_dot" xOffset="1275" yOffset="800"/>
    <contour>
      <point x="600" y="800" type="move" name="rtl-above"/>
    </contour>
    <contour>
      <point x="600" y="-700" type="move" name="rtl-below"/>
    </contour>
  </outline>
</glyph>
<glyph name="uni0685" format="1">
  <advance width="1322"/>
  <unicode hex="0685"/>
  <outline>
    <component base="uni062D"/>
    <component base="arabic_3dots" xOffset="450" yOffset="1050"/>
    <contour>
      <point x="650" y="1500" type="move" name="rtl-above"/>
    </contour>
    <contour>
      <point x="812" y="-600" type="move" name="rtl-below"/>
    </contour>
  </outline>
</glyph>
<glyph name="uni1D1C" format="1">
  <advance width="1176"/>
  <unicode hex="1D1C"/>
  <outline>
    <contour>
      <point x="744" y="125"/>
      <point x="859" y="267"/>
      <point x="859" y="429" type="qcurve" smooth="yes"/>
      <point x="859" y="1120" type="line"/>
      <point x="1044" y="1120" type="line"/>
      <point x="1044" y="411" type="line" smooth="yes"/>
      <point x="1044" y="192"/>
      <point x="827" y="-32"/>
      <point x="403" y="-32"/>
      <point x="186" y="192"/>
      <point x="186" y="411" type="qcurve" smooth="yes"/>
      <point x="186" y="1120" type="line"/>
      <point x="371" y="1120" type="line"/>
      <point x="371" y="429" type="line" smooth="yes"/>
      <point x="371" y="267"/>
      <point x="486" y="125"/>
    </contour>
    <contour>
      <point x="615" y="1147" type="move" name="above"/>
    </contour>
    <contour>
      <point x="615" y="0" type="move" name="below"/>
    </contour>
  </outline>
</glyph>
<glyph name="uni1D27" format="1">
  <advance width="1212"/>
  <unicode hex="1D27"/>
  <outline>
    <component base="uni028C"/>
    <contour>
      <point x="606" y="1147" type="move" name="above"/>
    </contour>
    <contour>
      <point x="606" y="0" type="move" name="below"/>
    </contour>
  </outline>
</glyph>
<glyph name="uniA7FB" format="1">
  <advance width="1178"/>
  <unicode hex="A7FB"/>
  <outline>
    <contour>
      <point x="977" y="1493" type="line"/>
      <point x="977" y="0" type="line"/>
      <point x="775" y="0" type="line"/>
      <point x="775" y="713" type="line"/>
      <point x="183" y="713" type="line"/>
      <point x="183" y="883" type="line"/>
      <point x="775" y="883" type="line"/>
      <point x="775" y="1323" type="line"/>
      <point x="119" y="1323" type="line"/>
      <point x="119" y="1493" type="line"/>
    </contour>
    <contour>
      <point x="588" y="1520" type="move" name="above"/>
    </contour>
    <contour>
      <point x="588" y="0" type="move" name="below"/>
    </contour>
    <contour>
      <point x="0" y="1520" type="move" name="half"/>
    </contour>
  </outline>
</glyph>
<glyph name="uniFB65" format="1">
  <advance width="618"/>
  <unicode hex="FB65"/>
  <outline>
    <component base="uni066E.medi"/>
    <component base="arabic_4dots" xOffset="99" yOffset="1100"/>
    <contour>
      <point x="299" y="1300" type="move" name="rtl-above"/>
    </contour>
    <contour>
      <point x="299" y="-100" type="move" name="rtl-below"/>
    </contour>
  </outline>
</glyph>
<glyph name="uniFBD4" format="1">
  <advance width="1726"/>
  <unicode hex="FBD4"/>
  <outline>
    <component base="uniFEDA"/>
    <component base="arabic_3dots" xOffset="625" yOffset="1350"/>
    <contour>
      <point x="825" y="1800" type="move" name="rtl-above"/>
    </contour>
    <contour>
      <point x="800" y="-200" type="move" name="rtl-below"/>
    </contour>
  </outline>
</glyph>
<glyph name="uniFE87" format="1">
  <advance width="569"/>
  <unicode hex="FE87"/>
  <outline>
    <component base="uni0655" xOffset="-227"/>
    <component base="uni0627"/>
    <contour>
      <point x="285" y="1650" type="move" name="rtl-above"/>
    </contour>
    <contour>
      <point x="285" y="-600" type="move" name="rtl-below"/>
    </contour>
  </outline>
</glyph>
<glyph name="uniFE97" format="1">
  <advance width="570"/>
  <unicode hex="FE97"/>
  <outline>
    <component base="uni066E.init"/>
    <component base="arabic_2dots" xOffset="99" yOffset="850"/>
    <contour>
      <point x="299" y="1050" type="move" name="rtl-above"/>
    </contour>
    <contour>
      <point x="299" y="-100" type="move" name="rtl-below"/>
    </contour>
  </outline>
</glyph>
<glyph name="uniFE9A" format="1">
  <advance width="2011"/>
  <unicode hex="FE9A"/>
  <outline>
    <component base="uni066E.fina"/>
    <component base="arabic_3dots" xOffset="700" yOffset="650"/>
    <contour>
      <point x="900" y="1100" type="move" name="rtl-above"/>
    </contour>
    <contour>
      <point x="900" y="-150" type="move" name="rtl-below"/>
    </contour>
  </outline>
</glyph>
<glyph name="uniFEBE" format="1">
  <advance width="2509"/>
  <unicode hex="FEBE"/>
  <outline>
    <component base="uniFEBA"/>
    <component base="arabic_dot" xOffset="1275" yOffset="800"/>
    <contour>
      <point x="600" y="800" type="move" name="rtl-above"/>
    </contour>
    <contour>
      <point x="600" y="-600" type="move" name="rtl-below"/>
    </contour>
  </outline>
</glyph>
<glyph name="uniFED4" format="1">
  <advance width="1036"/>
  <unicode hex="FED4"/>
  <outline>
    <component base="uni06A1.medi"/>
    <component base="arabic_dot" xOffset="443" yOffset="1000"/>
    <contour>
      <point x="518" y="1200" type="move" name="rtl-above"/>
    </contour>
    <contour>
      <point x="518" y="-150" type="move" name="rtl-below"/>
    </contour>
  </outline>
</glyph>
<glyph name="uniFEF8" format="1">
  <advance width="1222"/>
  <unicode hex="FEF8"/>
  <outline>
    <component base="uniFEFC"/>
    <component base="uni0654" xOffset="-362" yOffset="300"/>
    <contour>
      <point x="150" y="2020" type="move" name="Ligature rtl-above"/>
    </contour>
    <contour>
      <point x="200" y="-150" type="move" name="Ligature rtl-below"/>
    </contour>
  </outline>
</glyph>
<glyph name="uni0651064B" format="1">
  <advance width="0"/>
  <outline>
    <component base="uni064B" yOffset="600"/>
    <component base="uni0651"/>
    <contour>
      <point x="512" y="1200" type="move" name="_Ligature rtl-above"/>
    </contour>
    <contour>
      <point x="512" y="1200" type="move" name="_rtl-above"/>
    </contour>
    <contour>
      <point x="512" y="1200" type="move" name="_rtl-above-mark"/>
    </contour>
    <contour>
      <point x="512" y="2300" type="move" name="rtl-above-mark"/>
    </contour>
  </outline>
</glyph>
<glyph name="uni0681.fina" format="1">
  <advance width="1322"/>
  <outline>
    <component base="uniFEA2"/>
    <component base="uni0654" xOffset="138" yOffset="-200"/>
    <contour>
      <point x="650" y="1550" type="move" name="rtl-above"/>
    </contour>
    <contour>
      <point x="812" y="-600" type="move" name="rtl-below"/>
    </contour>
  </outline>
</glyph>
<glyph name="uni06A3.init" format="1">
  <advance width="979"/>
  <outline>
    <component base="uni06A1.init"/>
    <component base="arabic_dot" xOffset="425" yOffset="1150"/>
    <component base="arabic_dot" xOffset="424" yOffset="-300"/>
    <contour>
      <point x="500" y="1350" type="move" name="rtl-above"/>
    </contour>
    <contour>
      <point x="499" y="-350" type="move" name="rtl-below"/>
    </contour>
  </outline>
</glyph>
<glyph name="uni06AC.init" format="1">
  <advance width="975"/>
  <outline>
    <component base="uniFEDB"/>
    <component base="arabic_dot" xOffset="200" yOffset="1500"/>
    <contour>
      <point x="275" y="1700" type="move" name="rtl-above"/>
    </contour>
    <contour>
      <point x="300" y="-150" type="move" name="rtl-below"/>
    </contour>
  </outline>
</glyph>
<glyph name="uni06B2.fina" format="1">
  <advance width="1833"/>
  <outline>
    <component base="uniFB93"/>
    <component base="arabic_2dots" xOffset="600" yOffset="-350"/>
    <contour>
      <point x="500" y="1400" type="move" name="rtl-above"/>
    </contour>
    <contour>
      <point x="800" y="-400" type="move" name="rtl-below"/>
    </contour>
  </outline>
</glyph>
<glyph name="uni06B4.init" format="1">
  <advance width="975"/>
  <outline>
    <component base="uniFB94"/>
    <component base="arabic_3dots" xOffset="75" yOffset="1700"/>
    <contour>
      <point x="275" y="2150" type="move" name="rtl-above"/>
    </contour>
    <contour>
      <point x="300" y="-150" type="move" name="rtl-below"/>
    </contour>
  </outline>
</glyph>
<glyph name="uni06D5.fina" format="1">
  <advance width="1098"/>
  <outline>
    <component base="uniFEEA"/>
    <contour>
      <point x="550" y="850" type="move" name="rtl-above"/>
    </contour>
    <contour>
      <point x="500" y="-150" type="move" name="rtl-below"/>
    </contour>
  </outline>
</glyph>
